<svg width="50" height="50" viewBox="0 0 50 50" fill="none" xmlns="http://www.w3.org/2000/svg">
<g clip-path="url(#clip0_4_2)">
<path d="M35.3027 0.117202C35.791 0.32228 36.1426 0.761733 36.2402 1.27931L38.1836 11.8164L48.7207 13.75C49.2383 13.8477 49.6777 14.1992 49.8828 14.6875C50.0879 15.1758 50.0293 15.7324 49.7266 16.1719L43.6426 25L49.7266 33.8184C50.0293 34.2578 50.0879 34.8145 49.8828 35.3027C49.6777 35.791 49.2383 36.1426 48.7207 36.2402L38.1836 38.1836L36.2402 48.7207C36.1426 49.2383 35.791 49.6777 35.3027 49.8828C34.8145 50.0879 34.2578 50.0293 33.8184 49.7266L25 43.6426L16.1817 49.7266C15.7422 50.0293 15.1856 50.0879 14.6973 49.8828C14.209 49.6777 13.8574 49.2383 13.7598 48.7207L11.8164 38.1836L1.27931 36.2402C0.761733 36.1426 0.32228 35.791 0.117202 35.3027C-0.087876 34.8145 -0.0292823 34.2578 0.273452 33.8184L6.35744 25L0.273452 16.1817C-0.0292823 15.7422 -0.087876 15.1856 0.117202 14.6973C0.32228 14.209 0.761733 13.8574 1.27931 13.7598L11.8164 11.8164L13.7598 1.27931C13.8574 0.761733 14.209 0.32228 14.6973 0.117202C15.1856 -0.087876 15.7422 -0.0292823 16.1817 0.273452L25 6.35744L33.8184 0.273452C34.2578 -0.0292823 34.8145 -0.087876 35.3027 0.117202ZM15.625 25C15.625 22.5136 16.6127 20.129 18.3709 18.3709C20.129 16.6127 22.5136 15.625 25 15.625C27.4864 15.625 29.871 16.6127 31.6291 18.3709C33.3873 20.129 34.375 22.5136 34.375 25C34.375 27.4864 33.3873 29.871 31.6291 31.6291C29.871 33.3873 27.4864 34.375 25 34.375C22.5136 34.375 20.129 33.3873 18.3709 31.6291C16.6127 29.871 15.625 27.4864 15.625 25ZM37.5 25C37.5 21.6848 36.1831 18.5054 33.8388 16.1612C31.4946 13.817 28.3152 12.5 25 12.5C21.6848 12.5 18.5054 13.817 16.1612 16.1612C13.817 18.5054 12.5 21.6848 12.5 25C12.5 28.3152 13.817 31.4946 16.1612 33.8388C18.5054 36.1831 21.6848 37.5 25 37.5C28.3152 37.5 31.4946 36.1831 33.8388 33.8388C36.1831 31.4946 37.5 28.3152 37.5 25Z" fill="#00BFA6"/>
</g>
<defs>
<clipPath id="clip0_4_2">
<rect width="50" height="50" fill="white"/>
</clipPath>
</defs>
</svg>
